<svg width="135" height="136" viewBox="0 0 135 136" fill="none" xmlns="http://www.w3.org/2000/svg">
<path d="M67.3212 0.963348C49.4655 0.963348 32.341 8.05637 19.7152 20.682C7.0893 33.3077 -0.00390625 50.4317 -0.00390625 68.2871C-0.00390625 77.1282 1.7376 85.8828 5.12099 94.0508C8.50439 102.219 13.4635 109.641 19.7152 115.892C25.9669 122.144 33.3887 127.103 41.557 130.486C49.7252 133.87 58.48 135.611 67.3212 135.611C76.1624 135.611 84.917 133.87 93.0852 130.486C101.253 127.103 108.675 122.144 114.927 115.892C121.179 109.641 126.138 102.219 129.521 94.0508C132.905 85.8828 134.646 77.1282 134.646 68.2871C134.646 59.446 132.905 50.6915 129.521 42.5234C126.138 34.3553 121.179 26.9336 114.927 20.682C108.675 14.4304 101.253 9.47138 93.0852 6.08804C84.917 2.70471 76.1624 0.963348 67.3212 0.963348V0.963348ZM104.416 91.6904C100.027 94.4384 94.9543 95.8955 89.7766 95.8951C85.7944 95.8968 81.8593 95.0351 78.2422 93.3694C74.6252 91.7037 71.4123 89.2737 68.8248 86.2467C67.0021 88.3736 64.8672 90.2116 62.4931 91.698C58.1034 94.4451 53.0286 95.8997 47.8502 95.8951C40.5315 95.8871 33.5148 92.9762 28.3396 87.8012C23.1644 82.6261 20.2535 75.6095 20.2455 68.2909C20.2535 60.9722 23.1644 53.9556 28.3396 48.7806C33.5148 43.6055 40.5315 40.6947 47.8502 40.6867C52.7819 40.6871 57.6232 42.0099 61.8698 44.5173C64.4884 46.0664 66.8341 48.0358 68.8133 50.3464C71.4011 47.3187 74.6146 44.8879 78.2323 43.2216C81.85 41.5553 85.786 40.693 89.769 40.6942C94.7051 40.6897 99.552 42.0099 103.804 44.5173C107.916 46.9484 111.331 50.4009 113.717 54.5398L105.897 59.0429C104.262 56.2129 101.912 53.8622 99.0833 52.2259C96.2542 50.5896 93.0448 49.7252 89.7766 49.7193C84.8499 49.7253 80.1266 51.6851 76.6429 55.1687C73.1592 58.6524 71.1994 63.3756 71.1934 68.3023C71.1994 73.2289 73.1592 77.9521 76.6429 81.4357C80.1266 84.9194 84.8499 86.8791 89.7766 86.8851C93.215 86.8925 96.5875 85.9422 99.5161 84.1406C102.445 82.3391 104.814 79.7575 106.358 76.6852L114.405 80.7689C112.13 85.2484 108.678 89.0239 104.42 91.6904H104.416Z" fill="white"/>
<path d="M62.7235 59.2507C61.1479 56.6064 58.9135 54.416 56.2384 52.8931C53.5634 51.3702 50.5393 50.567 47.4611 50.5618C42.7592 50.5668 38.2512 52.4365 34.926 55.7609C31.6009 59.0853 29.7301 63.5929 29.7241 68.2947C29.7301 72.9966 31.6009 77.5041 34.926 80.8284C38.2512 84.1528 42.7592 86.0226 47.4611 86.0276C50.542 86.0363 53.5714 85.2389 56.2488 83.7147C58.9262 82.1904 61.1584 79.9923 62.7235 77.3386C61.6633 74.444 61.1224 71.3849 61.1256 68.3022C61.1212 65.2145 61.6621 62.1502 62.7235 59.2507V59.2507Z" fill="white"/>
</svg>
