<?xml version="1.0" standalone="no"?>
<!DOCTYPE svg PUBLIC "-//W3C//DTD SVG 20010904//EN"
 "http://www.w3.org/TR/2001/REC-SVG-20010904/DTD/svg10.dtd">
<svg version="1.0" xmlns="http://www.w3.org/2000/svg"
 width="192.000000pt" height="192.000000pt" viewBox="0 0 192.000000 192.000000"
 preserveAspectRatio="xMidYMid meet">

<g transform="translate(0.000000,192.000000) scale(0.100000,-0.100000)"
fill="#000000" stroke="none">
<path d="M605 1307 l-60 -22 -3 -328 -2 -327 27 -11 c16 -6 46 -15 69 -21 l41
-11 109 112 c60 62 111 117 113 123 2 5 -18 30 -44 55 l-47 45 -49 -48 -49
-48 0 124 0 125 115 -115 114 -114 68 65 c37 35 76 74 86 86 10 12 31 32 47
43 l30 21 0 -115 0 -115 -46 44 -46 45 -49 -43 c-27 -23 -49 -45 -49 -48 0 -3
43 -48 95 -100 52 -51 98 -101 101 -111 8 -27 39 -31 99 -12 30 10 53 19 51
22 -2 2 -29 -4 -60 -14 -36 -11 -60 -14 -66 -8 -6 6 -11 112 -12 252 l-3 241
-122 -121 -122 -122 -118 118 -118 117 -3 -238 c-1 -130 -6 -241 -11 -246 -6
-6 -36 -3 -75 8 l-66 18 0 323 0 322 63 21 62 20 133 -132 132 -132 133 133
132 132 67 -22 68 -22 3 -320 2 -321 0 324 0 324 -70 24 -70 23 -130 -129
-130 -130 -132 129 c-73 72 -136 130 -140 129 -5 0 -35 -10 -68 -22z"/>
</g>
</svg>
